<?xml version="1.0" standalone="no"?>
<!DOCTYPE svg PUBLIC "-//W3C//DTD SVG 1.1//EN" "http://www.w3.org/Graphics/SVG/1.1/DTD/svg11.dtd" >
<svg xmlns="http://www.w3.org/2000/svg" xmlns:xlink="http://www.w3.org/1999/xlink" version="1.1">
<metadata></metadata>
<defs>
<font id="webfontregular" horiz-adv-x="1228" >
<font-face units-per-em="2048" ascent="1638" descent="-410" />
<missing-glyph horiz-adv-x="1216" />
<glyph unicode="&#xfb01;" d="M25 869v155h248v52q0 221 50 327t154.5 174t276.5 68q130 0 264 -27v-177q-145 48 -257 48q-89 0 -157 -33t-106.5 -107.5t-38.5 -252.5v-72h652v-1024h-186v869h-466v-869h-186v869h-248z" />
<glyph unicode="&#xfb02;" d="M2 869v155h217v52q0 221 50 327t154.5 174t274.5 68q66 0 133 -7.5t133 -23.5h186v-1614h-186v1441q-71 23 -136 35.5t-121 12.5q-89 0 -157 -33t-106.5 -107.5t-38.5 -252.5v-72h412v-155h-412v-869h-186v869h-217z" />
<glyph unicode="&#xd;" horiz-adv-x="1216" />
<glyph horiz-adv-x="0" />
<glyph horiz-adv-x="0" />
<glyph unicode=" "  horiz-adv-x="1216" />
<glyph unicode="&#x09;" horiz-adv-x="1216" />
<glyph unicode="&#xa0;" horiz-adv-x="1216" />
<glyph unicode="!" d="M471 97q0 59 42.5 101t101.5 42q58 0 100.5 -41.5t42.5 -101.5q0 -59 -43 -101.5t-100 -42.5q-59 0 -101.5 42.5t-42.5 101.5zM483 1552h248l-47 -1110h-155z" />
<glyph unicode="&#x22;" d="M273 1614h249l-57 -559h-128zM712 1614h244l-60 -559h-127z" />
<glyph unicode="#" d="M71 419v140h196l110 411h-306v139h341l117 443h146l-117 -443h283l122 443h146l-120 -443h168v-139h-207l-109 -411h316v-140h-355l-114 -419h-148l116 419h-279l-110 -419h-148l111 419h-159zM414 559h280l113 411h-286z" />
<glyph unicode="$" d="M161 82v192q66 -34 129.5 -58t134 -38t155.5 -20v557l-107 58q-304 163 -304 394q0 123 101 239.5t310 134.5v166h140v-166q118 0 279 -41v-173l-35 10q-150 42 -244 51v-544l112 -64q158 -92 216.5 -179.5t58.5 -186.5q0 -90 -44.5 -173t-127.5 -143t-215 -83v-170h-140 v157q-67 0 -139 7t-135 21.5t-145 51.5zM370 1190q0 -66 46.5 -128.5t163.5 -133.5v462q-101 -22 -155.5 -75.5t-54.5 -124.5zM720 172q109 39 147.5 95.5t38.5 126.5q0 68 -38 116.5t-148 121.5v-460z" />
<glyph unicode="%" d="M2 -47l1061 1645h165l-1062 -1645h-164zM3 1164q0 172 83 280t228 108t227.5 -108t82.5 -280q0 -174 -82.5 -281t-227.5 -107t-228 107.5t-83 280.5zM159 1164q0 -109 37 -186.5t118 -77.5q80 0 117.5 77.5t37.5 186.5q0 107 -37.5 185t-117.5 78q-81 0 -118 -77.5 t-37 -185.5zM604 388q0 174 84.5 281t223.5 107t226 -104t87 -268q0 -189 -92 -296.5t-223 -107.5q-128 0 -217 102.5t-89 285.5zM760 382q0 -132 46 -195t108 -63q66 0 111 69t45 199q0 102 -37.5 181t-117.5 79q-79 0 -117 -76t-38 -194z" />
<glyph unicode="&#x26;" d="M2 383q0 262 274 491q-82 103 -123.5 192.5t-41.5 166.5q0 94 49 181.5t135 135.5t190 48q138 0 231 -74t93 -212q0 -100 -56.5 -201.5t-234.5 -236.5l354 -436q16 50 20 82t7 117t3 105v49h186v-47q0 -66 -14 -189.5t-84 -262.5l238 -292h-238l-109 130 q-98 -103 -195 -140t-209 -37q-214 0 -344.5 121t-130.5 309zM183 398q0 -130 87 -210t211 -80q66 0 132.5 23.5t164.5 122.5l-405 498q-189 -164 -190 -354zM297 1265q0 -45 12 -91.5t90 -151.5q6 -10 22 -30q100 71 159.5 155.5t59.5 152.5q0 65 -41.5 111.5t-129.5 46.5 q-76 0 -124 -56t-48 -137z" />
<glyph unicode="'" d="M444 1614h341l-102 -621h-134z" />
<glyph unicode="(" d="M188 636q0 238 113.5 475t303.5 376.5t467 157.5v-156q-209 -20 -359.5 -141t-236.5 -309t-86 -403t86 -403t236.5 -309t359.5 -141v-155q-277 17 -467 156.5t-303.5 376.5t-113.5 475z" />
<glyph unicode=")" d="M157 -217q209 20 359.5 141t237 309t86.5 403q0 216 -86.5 403.5t-237 309t-359.5 140.5v156q277 -19 467 -158t303.5 -376t113.5 -475t-113.5 -475t-303.5 -376.5t-467 -156.5v155z" />
<glyph unicode="*" d="M164 978l307 150l-307 152l93 159l283 -189l-21 348h188l-26 -348l289 189l94 -159l-308 -152l308 -150l-94 -162l-289 190l26 -347h-188l21 347l-283 -190z" />
<glyph unicode="+" d="M71 465v156h465v465h156v-465h465v-156h-465v-465h-156v465h-465z" />
<glyph unicode="," d="M424 -310q72 20 109.5 55t60 89.5t22.5 131.5q-94 0 -137.5 52.5t-43.5 112.5q0 69 49 116.5t114 47.5q84 0 145 -72.5t61 -198.5q0 -110 -48 -207.5t-130.5 -166.5t-201.5 -84v124z" />
<glyph unicode="-" d="M227 551v155h776v-155h-776z" />
<glyph unicode="." d="M451 116q0 68 48.5 115.5t114.5 47.5q65 0 114 -47.5t49 -115.5q0 -67 -48.5 -115t-114.5 -48q-67 0 -115 48t-48 115z" />
<glyph unicode="/" d="M33 -47l987 1645h177l-981 -1645h-183z" />
<glyph unicode="0" d="M71 776q0 376 139.5 599t403.5 223t403.5 -222.5t139.5 -599.5q0 -378 -139 -600.5t-404 -222.5q-264 0 -403.5 222.5t-139.5 600.5zM273 787q0 -65 4 -139.5t34 -203.5l537 841q-52 93 -111 125.5t-123 32.5q-168 0 -254.5 -185.5t-86.5 -470.5zM382 254q43 -72 99 -109 t125 -37q190 0 270 212.5t80 471.5q0 160 -41 308z" />
<glyph unicode="1" d="M188 0v155h380v1198q-84 -66 -163 -113.5t-217 -96.5v168q218 94 380 241h186v-1397h373v-155h-939z" />
<glyph unicode="2" d="M149 0v171q0 66 27 141.5t103 169.5t161 181l106 108q32 32 140 152.5t142.5 184.5t34.5 126q0 100 -80 154.5t-180 54.5q-57 0 -127.5 -13t-123.5 -30.5t-172 -71.5v165q126 59 252.5 82t208.5 23q121 0 222.5 -39.5t151 -122.5t49.5 -177q0 -105 -63.5 -215 t-239.5 -283l-114 -113l-96 -94q-91 -92 -147 -178t-62 -205h746v-171h-939z" />
<glyph unicode="3" d="M145 28v196q228 -116 397 -116q154 0 254.5 93.5t100.5 240.5q0 148 -110.5 241t-375.5 93h-103v155h143q195 0 282 87.5t87 194.5q0 97 -71 163.5t-218 66.5q-165 0 -355 -93v177q190 71 348 71q283 0 390.5 -111.5t107.5 -254.5q0 -105 -57 -198.5t-210 -166.5 q136 -40 204.5 -98t104 -137t35.5 -177q0 -218 -161.5 -360t-417.5 -142q-74 0 -161.5 10.5t-213.5 64.5z" />
<glyph unicode="4" d="M48 434v156l659 962h187v-962h287v-156h-287v-434h-187v434h-659zM246 590h461v680z" />
<glyph unicode="5" d="M157 26v203q85 -46 190 -75.5t194 -29.5t174 43t132 125.5t47 168.5q0 144 -128.5 245t-456.5 101h-121v745h869v-179h-683v-380h32q335 0 516 -140t181 -377q0 -150 -73 -269t-206 -186.5t-283 -67.5t-384 73z" />
<glyph unicode="6" d="M102 759q0 388 171 613.5t463 225.5q157 0 305 -46v-188q-166 79 -313 79q-208 0 -322 -191t-114 -484v-40q72 107 178.5 174.5t234.5 67.5q121 0 229.5 -59t165.5 -164.5t57 -245.5q0 -221 -141.5 -384.5t-372.5 -163.5q-272 0 -406.5 227.5t-134.5 578.5zM366 453 q0 -152 88.5 -248.5t202.5 -96.5q75 0 151 44.5t119.5 137t43.5 201.5q0 142 -73.5 233t-209.5 91q-140 0 -231 -105.5t-91 -256.5z" />
<glyph unicode="7" d="M164 1365v187h985v-124q0 -74 -29.5 -137t-178.5 -269q-36 -49 -71 -98l-104 -146q-99 -141 -147.5 -225t-73 -175t-24.5 -239v-139h-202v139q0 163 37 274t130 247t149 210l162 214l58 75q65 90 114 206h-805z" />
<glyph unicode="8" d="M133 355q-1 255 326 482l-34 25q-71 50 -139 147.5t-68 214.5q0 155 122 264.5t310 109.5q114 0 206.5 -41.5t142.5 -122.5t50 -177q0 -66 -23 -127.5t-68.5 -122t-180.5 -170.5l84 -67q147 -120 198 -207t51 -195q0 -168 -122 -291.5t-366 -123.5q-245 0 -367 115.5 t-122 286.5zM335 358q0 -105 87 -177t206 -72q109 0 195 69t86 172q0 100 -104.5 204.5t-145.5 136.5l-60 47q-263 -203 -264 -380zM397 1237q0 -69 49 -131.5t157 -139.5l47 -34q140 106 176 178.5t36 134.5q0 75 -66 136.5t-170 61.5q-112 0 -170.5 -67t-58.5 -139z" />
<glyph unicode="9" d="M71 1051q0 219 141.5 383t372.5 164q272 0 406.5 -227.5t134.5 -578.5q0 -388 -171 -613.5t-463 -225.5q-156 0 -305 47v187q166 -78 313 -78q208 0 322 191t114 484v40q-72 -107 -178.5 -174.5t-234.5 -67.5q-121 0 -229.5 58.5t-165.5 164.5t-57 246zM257 1060 q0 -141 73.5 -232t209.5 -91q140 0 231 105.5t91 255.5q0 152 -88.5 248.5t-202.5 96.5q-74 0 -150.5 -44.5t-120 -136.5t-43.5 -202z" />
<glyph unicode=":" d="M451 116q0 68 48.5 115.5t114.5 47.5q65 0 114 -47.5t49 -115.5q0 -67 -48.5 -115t-114.5 -48q-67 0 -115 48t-48 115zM451 985q0 68 48.5 115.5t114.5 47.5q65 0 114 -47.5t49 -115.5q0 -67 -48.5 -115t-114.5 -48q-67 0 -115 48t-48 115z" />
<glyph unicode=";" d="M424 -310q72 20 109.5 55t60 89.5t22.5 131.5q-94 0 -137.5 52.5t-43.5 112.5q0 69 49 116.5t114 47.5q84 0 145 -72.5t61 -198.5q0 -110 -48 -207.5t-130.5 -166.5t-201.5 -84v124zM435 985q0 68 48.5 115.5t114.5 47.5t114.5 -47.5t48.5 -115.5q0 -67 -48 -115 t-115 -48t-115 48t-48 115z" />
<glyph unicode="&#x3c;" d="M71 543l1086 543v-173l-742 -369l742 -373v-171z" />
<glyph unicode="=" d="M71 287v155h1086v-155h-1086zM71 636v155h1086v-155h-1086z" />
<glyph unicode="&#x3e;" d="M71 0v173l743 369l-743 373v171l1086 -543z" />
<glyph unicode="?" d="M207 1328v180q185 91 387 90q224 0 341.5 -91.5t117.5 -237.5q0 -143 -152 -299l-66 -68l-78 -81l-71 -73q-39 -44 -69 -101t-30 -159v-46h-186v35q0 83 14 138.5t53.5 115t118.5 143.5l62 66q19 19 52 62l66 83q85 103 84 180q0 70 -60 124t-195 54q-87 0 -177.5 -23.5 t-211.5 -91.5zM360 97q0 59 42.5 101t100.5 42q59 0 101.5 -41.5t42.5 -101.5q0 -59 -43 -101.5t-101 -42.5q-59 0 -101 42.5t-42 101.5z" />
<glyph unicode="@" d="M2 781q0 364 167 590.5t451 226.5q281 0 444.5 -200t163.5 -526q0 -144 -42 -236.5t-111 -147t-167 -54.5q-76 0 -124 33.5t-72 154.5q-28 -65 -86 -126.5t-157 -61.5q-103 0 -170.5 93.5t-67.5 229.5q0 167 96.5 310t348.5 143h191v-438q0 -88 6.5 -124t27 -55t44.5 -19 q39 0 78.5 37.5t60 106t20.5 148.5q0 167 -61 324.5t-181 224.5t-251 67q-139 0 -244.5 -83.5t-173 -250.5t-67.5 -369q0 -203 67 -376t181 -253t254 -80q159 0 293 130v-157q-84 -55 -149 -72.5t-140 -17.5q-208 0 -340.5 101.5t-211 283t-78.5 443.5zM394 751 q0 -77 24 -119t66 -42q59 0 120.5 68t107.5 151v269h-36q-118 0 -170 -37t-82 -116t-30 -174z" />
<glyph unicode="A" d="M33 0l478 1552h205l481 -1552h-213l-106 341h-546l-105 -341h-194zM380 496h453l-187 589l-44 156l-39 -156z" />
<glyph unicode="B" d="M172 0v1552h303q273 0 365.5 -41.5t138.5 -122.5t46 -185q0 -83 -27 -156t-80 -133.5t-154 -114.5q185 -74 250.5 -182t65.5 -216q0 -102 -55.5 -199.5t-155.5 -149.5t-320 -52h-377zM374 155h191q160 0 236.5 75.5t76.5 181.5q0 78 -42 143.5t-130 104t-276 38.5h-56 v-543zM374 853h212q102 43 150 90.5t71.5 106t23.5 128.5q0 110 -64.5 164t-251.5 54h-141v-543z" />
<glyph unicode="C" d="M118 776q0 241 84 433t237 291t337 99q138 0 312 -65v-184q-159 93 -317 93h-3q-121 0 -220 -82t-160 -240.5t-61 -344.5q0 -189 63 -349t161 -239.5t217 -79.5q158 0 320 93v-183q-175 -64 -312 -65q-182 0 -335 97.5t-238 290t-85 435.5z" />
<glyph unicode="D" d="M155 0v1552h368q255 0 378 -88.5t185 -267.5t62 -424q0 -232 -65.5 -407.5t-185.5 -270t-374 -94.5h-368zM357 171h135q206 0 293 73t124.5 202.5t37.5 357.5q0 223 -44 343t-126 184.5t-269 64.5h-151v-1225z" />
<glyph unicode="E" d="M203 0v1552h822v-156h-620v-527h558v-155h-558v-543h636v-171h-838z" />
<glyph unicode="F" d="M227 0v1552h853v-156h-651v-527h589v-155h-589v-714h-202z" />
<glyph unicode="G" d="M118 776q0 241 84 433t237 291t336 99q138 0 312 -65v-184q-159 93 -317 93h-3q-120 0 -219.5 -82t-160 -240.5t-60.5 -346.5q0 -253 115 -459.5t363 -206.5q32 0 81 5v500h-155v155h357v-767q-165 -48 -301 -48q-194 0 -345.5 96t-237.5 289.5t-86 437.5z" />
<glyph unicode="H" d="M126 0v1552h202v-668h574v668h201v-1552h-201v729h-574v-729h-202z" />
<glyph unicode="I" d="M172 0v155h341v1241h-341v156h884v-156h-341v-1241h341v-155h-884z" />
<glyph unicode="J" d="M110 34v190q217 -115 365 -115q77 0 140.5 30t101 100.5t37.5 301.5v855h-349v156h551v-1016q0 -249 -56.5 -357.5t-158.5 -167t-261 -58.5q-178 0 -370 81z" />
<glyph unicode="K" d="M157 0v1552h202v-761l577 761h214l-557 -737l635 -815h-253l-616 791v-791h-202z" />
<glyph unicode="L" d="M219 0v1552h202v-1381h636v-171h-838z" />
<glyph unicode="M" d="M56 0v1552h203l358 -1022l358 1022h198v-1552h-186v989l5 136h-5l-44 -136l-240 -679h-202l-243 679l-39 136h-5l5 -136v-989h-163z" />
<glyph unicode="N" d="M126 0v1552h182l549 -1033l60 -154h5l-5 154v1033h186v-1552h-186l-534 1016l-75 163l4 -161v-1018h-186z" />
<glyph unicode="O" d="M71 776q0 376 139.5 599t403.5 223t403.5 -222.5t139.5 -599.5q0 -378 -139.5 -600.5t-403.5 -222.5t-403.5 222.5t-139.5 600.5zM273 776q0 -336 97.5 -501.5t243.5 -165.5q145 0 243 165.5t98 501.5q0 335 -97.5 501t-243.5 166t-243.5 -165.5t-97.5 -501.5z" />
<glyph unicode="P" d="M176 0v1552h386q238 0 347 -53.5t167 -156.5t58 -230q0 -149 -78 -278t-217.5 -198.5t-378.5 -69.5h-82v-566h-202zM378 721h87q187 0 278 48.5t140 139.5t49 197q0 134 -87.5 212t-345.5 78h-121v-675z" />
<glyph unicode="Q" d="M71 800q0 338 135 568t408 230q263 0 403 -222t140 -601q0 -180 -36.5 -344.5t-126 -289t-248.5 -170.5q70 -116 125 -161t143 -67t195 -22h18v-155h-47q-193 0 -281 40t-166 123t-142 226q-183 20 -289.5 116t-168.5 297t-62 432zM273 776q0 -336 97.5 -501.5 t243.5 -165.5q145 0 243 165.5t98 501.5q0 335 -98 501t-243 166q-146 0 -243.5 -165.5t-97.5 -501.5z" />
<glyph unicode="R" d="M149 0v1552h415q203 0 299 -41.5t148.5 -125.5t52.5 -181q0 -91 -35 -181.5t-96.5 -162t-177.5 -135.5l449 -725h-240l-411 659h-202v-659h-202zM351 815h283q96 52 142 106t70 115t24 122q0 109 -79.5 173.5t-288.5 64.5h-151v-581z" />
<glyph unicode="S" d="M157 33v190q240 -114 436 -114q82 0 157 31.5t113.5 90.5t38.5 128q0 81 -53 151.5t-199 155.5l-102 59l-103 59q-272 161 -272 400q0 176 121.5 295t379.5 119q166 0 321 -48v-173q-171 66 -333 66q-129 0 -208.5 -68t-79.5 -164t61 -158.5t156 -115.5l78 -47l97 -59 l82 -48q255 -156 255 -392q0 -180 -131 -309t-420 -129q-92 0 -175.5 15.5t-219.5 64.5z" />
<glyph unicode="T" d="M48 1381v171h1133v-171h-466v-1381h-202v1381h-465z" />
<glyph unicode="U" d="M126 559v993h202v-1019q0 -202 33.5 -275t103 -111.5t154.5 -38.5q90 0 160.5 41.5t104 130t33.5 332.5v940h186v-1013q0 -217 -64.5 -339.5t-168.5 -184.5t-262 -62q-145 0 -256.5 54t-168.5 162t-57 390z" />
<glyph unicode="V" d="M33 1552h213l337 -1084l44 -158l39 157l337 1085h194l-478 -1552h-205z" />
<glyph unicode="W" d="M28 1552h184l106 -945l14 -157h5l20 157l163 945h184l186 -983l19 -150h5l12 151l117 982h158l-188 -1552h-191l-200 1052l-21 158h-5l-19 -158l-180 -1052h-189z" />
<glyph unicode="X" d="M48 0l454 811l-410 741h229l297 -535l304 535h211l-410 -726l458 -826h-233l-341 619l-349 -619h-210z" />
<glyph unicode="Y" d="M52 1552h229l345 -616l344 616h207l-461 -834v-718h-202v718z" />
<glyph unicode="Z" d="M122 0v171l737 1225h-714v156h947v-156l-736 -1225h751v-171h-985z" />
<glyph unicode="[" d="M355 -372v2017h807v-156h-621v-1706h621v-155h-807z" />
<glyph unicode="\" d="M33 1598h177l987 -1645h-183z" />
<glyph unicode="]" d="M67 -217h621v1706h-621v156h807v-2017h-807v155z" />
<glyph unicode="^" d="M71 465l543 1087l543 -1087h-171l-372 747l-372 -747h-171z" />
<glyph unicode="_" d="M71 0h1086v-155h-1086v155z" />
<glyph unicode="`" d="M320 1614h216l296 -326h-170z" />
<glyph unicode="a" d="M102 457q0 194 74 346.5t198 241t307 88.5q54 0 160 -11q17 -2 48 -5h187v-789q0 -202 42 -328h-194q-22 92 -35 251q-86 -139 -205 -210.5t-219 -71.5q-140 0 -251.5 121t-111.5 367zM304 482q0 -166 62.5 -250.5t142.5 -84.5q87 0 191.5 88t188.5 237v479 q-99 26 -184 26q-172 0 -286.5 -133t-114.5 -362z" />
<glyph unicode="b" d="M141 0v1614h186v-748q86 140 205 211t219 71q140 0 252 -121t112 -367q0 -194 -74.5 -346.5t-198.5 -241t-307 -88.5q-53 0 -160 11q-17 2 -48 5h-186zM327 166q101 -25 186 -26q169 0 284.5 132.5t115.5 362.5q0 167 -63 251t-143 84q-87 0 -191.5 -88t-188.5 -237v-479 z" />
<glyph unicode="c" d="M164 558q0 255 165.5 422.5t399.5 167.5q173 0 366 -65v-179q-195 89 -349 89q-102 0 -192 -50.5t-139 -157.5t-49 -220q0 -150 94.5 -287.5t296.5 -137.5q61 0 120 8.5t218 62.5v-179q-187 -63 -356 -63t-299 77.5t-203 210t-73 301.5z" />
<glyph unicode="d" d="M114 457q0 194 74 346.5t198 241t307 88.5q53 0 160 -11q16 -2 48 -5v497h187v-1614h-187v251q-85 -139 -204.5 -210.5t-219.5 -71.5q-139 0 -251 121t-112 367zM316 482q0 -166 62.5 -250.5t142.5 -84.5q87 0 192 88t188 237v479q-99 26 -184 26q-172 0 -286.5 -133 t-114.5 -362z" />
<glyph unicode="e" d="M130 556q0 153 68 294t190 219.5t272 78.5q199 0 319.5 -142t120.5 -438v-40h-770q0 -116 48.5 -212t127.5 -144t180 -48q180 0 398 120v-170q-223 -106 -422 -106q-151 0 -270 75t-190.5 214.5t-71.5 298.5zM341 667h557v27q0 137 -67 218t-179 81q-113 0 -196 -82.5 t-115 -243.5z" />
<glyph unicode="f" d="M167 869v155h248v52q0 221 50 327t154.5 174t276.5 68q130 0 264 -27v-177q-144 48 -257 48q-89 0 -157 -33t-106.5 -107.5t-38.5 -252.5v-72h443v-155h-443v-869h-186v869h-248z" />
<glyph unicode="g" d="M114 457q0 194 74 346.5t198 241t307 88.5q53 0 160 -11q16 -2 48 -5h187v-790q0 -282 -7.5 -344.5t-24.5 -126.5q-40 -148 -182.5 -234.5t-344.5 -86.5q-203 0 -411 104v188q79 -55 194.5 -96t223.5 -41q85 0 161 27t123 78t64 118.5t17 179.5v158 q-85 -139 -204.5 -210.5t-219.5 -71.5q-139 0 -251 121t-112 367zM316 482q0 -166 62.5 -250.5t142.5 -84.5q87 0 192 88t188 237v479q-99 26 -184 26q-172 0 -286.5 -133t-114.5 -362z" />
<glyph unicode="h" d="M155 0v1614h186v-741q80 129 193 202t226 73q96 0 174 -48.5t109 -117.5q25 -53 34 -112.5t9 -245.5v-624h-186v647q0 162 -15.5 213t-57 84t-90.5 33q-98 0 -210.5 -93t-185.5 -233v-651h-186z" />
<glyph unicode="i" d="M158 962v155h496v-962h311v-155h-497v962h-310zM437 1520q0 62 43 93.5t81 31.5q39 0 82 -31t43 -94q0 -62 -43 -93t-82 -31q-38 0 -81 31t-43 93z" />
<glyph unicode="j" d="M172 -264q156 -46 263 -46q93 0 158 32.5t101.5 109.5t36.5 268v862h-474v155h660v-982q0 -284 -67 -394.5t-162 -158.5t-260 -48q-118 0 -256 28v174zM700 1520q0 62 42.5 93.5t81.5 31.5t81.5 -31t42.5 -94q0 -62 -42.5 -93t-81.5 -31t-81.5 31t-42.5 93z" />
<glyph unicode="k" d="M205 0v1614h186v-1014l537 517h248l-536 -517l550 -600h-256l-543 600v-600h-186z" />
<glyph unicode="l" d="M121 1458v156h520v-1459h349v-155h-535v1458h-334z" />
<glyph unicode="m" d="M71 0v1117h163v-256q77 163 143.5 225t134.5 62q81 0 130.5 -63.5t49.5 -180.5v-60q32 102 79 165.5t97 101t115 37.5q72 0 123 -61t51 -243v-844h-163v763q0 95 -6 129t-24 52t-39 18q-52 0 -111.5 -79.5t-121.5 -263.5v-619h-156v762q0 148 -29 174t-52 26 q-52 0 -110 -89t-111 -228v-645h-163z" />
<glyph unicode="n" d="M155 0v1117h186v-244q80 129 193 202t226 73q99 0 180 -52.5t113.5 -137.5t32.5 -334v-624h-186v647q0 162 -15.5 213t-57 84t-90.5 33q-98 0 -210.5 -93t-185.5 -233v-651h-186z" />
<glyph unicode="o" d="M87 559q0 256 144 422.5t384 166.5q239 0 383 -167t144 -422t-144 -422.5t-383 -167.5q-240 0 -384 167.5t-144 422.5zM289 559q0 -203 88 -319t238 -116q148 0 236.5 116t88.5 319q0 202 -88 318t-237 116q-150 0 -238 -116t-88 -318z" />
<glyph unicode="p" d="M141 -434v1551h186v-251q86 140 205 211t219 71q140 0 252 -121t112 -367q0 -194 -74.5 -346.5t-198.5 -241t-307 -88.5q-53 0 -160 11q-17 2 -48 5v-434h-186zM327 166q101 -25 186 -26q169 0 284.5 132.5t115.5 362.5q0 167 -63 251t-143 84q-87 0 -191.5 -88 t-188.5 -237v-479z" />
<glyph unicode="q" d="M114 457q0 194 74 346.5t198 241t307 88.5q53 0 160 -11q16 -2 48 -5h187v-1551h-187v685q-85 -139 -204.5 -210.5t-219.5 -71.5q-139 0 -251 121t-112 367zM316 482q0 -166 62.5 -250.5t142.5 -84.5q87 0 192 88t188 237v479q-99 26 -184 26q-172 0 -286.5 -133 t-114.5 -362z" />
<glyph unicode="r" d="M250 0v1117h186v-244q87 138 199.5 206.5t250.5 68.5q101 0 202 -31v-403h-179v255q-47 8 -74 8q-103 0 -203.5 -82t-195.5 -246v-649h-186z" />
<glyph unicode="s" d="M168 59v197q112 -73 237 -102.5t212 -29.5q140 0 202.5 45.5t62.5 113.5q0 45 -29 77t-144 79l-64 26l-129 51q-208 81 -262 150q-55 68 -55 166q0 138 106.5 227t345.5 89q178 0 339 -52v-169q-184 65 -346 66q-118 0 -184.5 -41.5t-66.5 -103.5q0 -60 58 -96t186 -83 l126 -46q174 -63 243 -137t70 -185q0 -145 -111.5 -238.5t-356.5 -93.5q-214 0 -440 90z" />
<glyph unicode="t" d="M96 869v155h279v450h186v-450h497v-155h-497v-447q0 -136 32 -191t85.5 -81t126.5 -26q136 0 284 85v-164q-132 -55 -190.5 -65.5t-113.5 -10.5q-117 0 -214 45t-146.5 133t-49.5 272v450h-279z" />
<glyph unicode="u" d="M143 493v624h186v-647q0 -161 15.5 -212.5t57 -84.5t89.5 -33q98 0 210.5 92.5t186.5 233.5v651h186v-1117h-186v245q-91 -138 -200.5 -207t-219.5 -69q-98 0 -179.5 52.5t-113.5 138t-32 333.5z" />
<glyph unicode="v" d="M33 1117h204l383 -884l391 884h186l-489 -1117h-190z" />
<glyph unicode="w" d="M20 1117h173l106 -680l28 -158l27 158l178 680h167l201 -680l35 -158l23 158l107 680h143l-181 -1117h-174l-214 719l-34 158h-5l-31 -157l-186 -720h-181z" />
<glyph unicode="x" d="M56 0l439 585l-410 532h238l291 -375l283 375h211l-388 -514l461 -603h-239l-340 445l-331 -445h-215z" />
<glyph unicode="y" d="M32 -287q77 -24 147 -24q90 0 160 35t128 124t82 154l17 43l-516 1072h205l411 -838l344 838h187l-433 -1038q-137 -329 -260.5 -437t-319.5 -108q-85 0 -152 15v164z" />
<glyph unicode="z" d="M133 0v171l685 791h-669v155h915v-155l-690 -791h713v-171h-954z" />
<glyph unicode="{" d="M211 559v155h89q156 0 219.5 65t63.5 162q0 36 -7 70l-12 52l-17 87l-18 80q-15 69 -15 128q0 110 79 198.5t353 88.5h157v-156h-155q-147 0 -195 -42.5t-48 -104.5q0 -44 20 -137l25 -114q20 -93 20 -149q0 -64 -21.5 -113.5t-65 -96.5t-136.5 -96q93 -49 136.5 -96 t65 -96.5t21.5 -113.5q0 -57 -20 -149l-25 -114q-20 -94 -20 -138q0 -60 47.5 -103t195.5 -43h155v-155h-157q-274 0 -353 88t-79 199q0 59 15 127l18 80l17 87l12 53q7 37 7 72q0 94 -62.5 159.5t-220.5 65.5h-89z" />
<glyph unicode="|" d="M533 -47v1645h163v-1645h-163z" />
<glyph unicode="}" d="M126 -217h155q148 0 195.5 42.5t47.5 104.5q0 44 -20 137l-25 114q-19 92 -19 149q0 64 21 113.5t64.5 96.5t136.5 96q-93 49 -136.5 96t-64.5 96.5t-21 113.5q0 57 19 149l25 114q20 93 20 138q0 61 -47.5 103.5t-195.5 42.5h-155v156h157q274 0 353.5 -88.5 t79.5 -198.5q0 -59 -16 -128l-18 -80l-17 -87l-12 -52q-8 -38 -7 -73q0 -93 62.5 -158.5t220.5 -65.5h89v-155h-89q-156 0 -219.5 -65.5t-63.5 -162.5q0 -34 7 -69l12 -53l17 -87l18 -80q16 -69 16 -128q0 -111 -79.5 -198.5t-353.5 -87.5h-157v155z" />
<glyph unicode="~" d="M56 403v18q0 131 77.5 227.5t208.5 96.5q33 0 64.5 -6.5t71.5 -22t120 -60.5l121 -67q111 -61 181 -61q74 0 109.5 53.5t35.5 116.5v16h128v-16q0 -168 -94.5 -247t-200.5 -79q-98 0 -262 93l-102 59q-116 66 -187 66q-40 0 -74.5 -21t-55.5 -67t-21 -81v-18h-120z" />
<glyph unicode="&#xa0;" />
<glyph unicode="&#xa1;" d="M471 1005q0 57 43 100t101 43q56 0 99.5 -43t43.5 -100q0 -59 -43.5 -101.5t-99.5 -42.5q-58 0 -101 43t-43 101zM498 -450l47 1109h155l46 -1109h-248z" />
<glyph unicode="&#xa2;" d="M118 766q0 156 59 277t163.5 201t266.5 109v354h155v-354q167 -19 287 -56v-179q-36 21 -80 37t-93 29t-114 19v-866q80 9 123 21t130 52q12 7 34 16v-180q-149 -49 -287 -55v-346h-155v346q-148 18 -255 96t-170.5 200.5t-63.5 278.5zM320 765q0 -126 60 -249.5 t227 -170.5v850q-153 -48 -220 -165t-67 -265z" />
<glyph unicode="&#xa3;" d="M141 0v171q93 21 136.5 62.5t66 121t22.5 202.5v211h-225v155h225v69q0 266 51 380t145 170t225 56q124 0 262 -58v-180q-158 83 -284 83q-57 0 -109.5 -37.5t-78 -114.5t-25.5 -289v-79h326v-155h-326v-117q0 -187 -22 -284.5t-128 -195.5h709v-171h-970z" />
<glyph unicode="&#xa4;" d="M71 266l184 211q-72 102 -88.5 165.5t-16.5 131.5q0 66 16 129t89 165l-184 212l115 101l185 -211q89 54 144 62.5t99 8.5t99.5 -8.5t143.5 -62.5l185 211l115 -101l-184 -212q73 -101 89 -164t16 -130q0 -68 -16 -131.5t-89 -165.5l184 -211l-115 -95l-185 206 q-92 -49 -143 -58t-100 -9q-50 0 -101 9.5t-142 57.5l-185 -206zM306 770q0 -133 94.5 -219t213.5 -86t213.5 86.5t94.5 218.5q0 86 -41.5 160.5t-116.5 115t-150 40.5t-150 -40.5t-116.5 -115t-41.5 -160.5z" />
<glyph unicode="&#xa5;" d="M52 1552h205l367 -642l368 642h185l-469 -831h318v-139h-318v-194h318v-140h-318v-248h-186v248h-326v140h326v194h-326v139h317z" />
<glyph unicode="&#xa6;" d="M533 -47v730h163v-730h-163zM533 869v729h163v-729h-163z" />
<glyph unicode="&#xa7;" d="M149 -100q101 -55 218 -86t211 -31q148 0 228 61t80 131q0 59 -39 102q-41 43 -171 117l-147 83q-196 110 -276.5 209t-80.5 208q0 163 145 296q-64 48 -96.5 109.5t-32.5 136.5q0 98 55.5 180.5t156.5 132t258 49.5q147 0 337 -57v-178q-60 31 -164 55.5t-182 24.5 q-136 0 -198 -54t-62 -120q0 -35 17.5 -66t52.5 -59q68 -55 126 -89l63 -35l149 -88q193 -114 250 -200q56 -88 56 -191q0 -164 -144 -297q93 -76 111 -136t18 -106q0 -94 -66.5 -187.5t-178.5 -140t-272 -46.5q-220 1 -422 71v201zM358 736q0 -81 55 -143.5t253 -176.5 l167 -97q100 80 100 186q0 72 -64.5 140.5t-148.5 116.5l-94 53l-184 105q-58 -65 -71 -106t-13 -78z" />
<glyph unicode="&#xa8;" d="M273 1412q0 52 37 88t87 36t87 -36t37 -88t-36.5 -88t-87.5 -36t-87.5 36t-36.5 88zM707 1412q0 52 37.5 88t87.5 36t87 -36t37 -88t-37 -88t-87 -36q-51 0 -88 36t-37 88z" />
<glyph unicode="&#xa9;" d="M2 776q0 232 74.5 418t206 295t332.5 109q194 0 323.5 -102t209.5 -291t80 -429q0 -241 -80.5 -431t-209.5 -291t-323 -101t-323 101t-209.5 291t-80.5 431zM126 776q0 -195 70 -369t180.5 -251.5t238.5 -77.5t240 80.5t180.5 252.5t68.5 365q0 192 -69 365t-181 253 t-239 80q-131 0 -244 -83.5t-179 -255t-66 -359.5zM227 775q0 145 57.5 268.5t151 191.5t229.5 68q101 0 229 -32v-159q-38 13 -83 20.5t-79.5 12t-57.5 4.5q-127 0 -201.5 -103t-74.5 -273q0 -187 87.5 -286t214.5 -99q82 0 194 45v-152q-91 -33 -214 -33 q-131 0 -232.5 70.5t-161 190t-59.5 266.5z" />
<glyph unicode="&#xaa;" d="M211 1190q0 118 58.5 209.5t157 145t247.5 53.5q45 0 129 -5l36 -3h140v-476q0 -49 5.5 -94.5t41.5 -111.5h-155q-19 58 -31 152q-58 -76 -155 -122t-184 -46q-112 0 -201 73.5t-89 224.5zM366 1201q0 -89 50 -133t118 -44q71 0 158.5 52t146.5 132l-1 255 q-78 11 -147 11q-137 0 -231 -72t-94 -201z" />
<glyph unicode="&#xab;" d="M153 481v155l384 419l112 -109l-311 -387l311 -399l-112 -98zM626 481v155l384 419l113 -109l-312 -387l312 -399l-113 -98z" />
<glyph unicode="&#xac;" d="M71 465v156h1086v-466h-155v310h-931z" />
<glyph unicode="&#xad;" d="M227 551v155h776v-155h-776z" />
<glyph unicode="&#xae;" d="M2 776q0 232 74.5 418t206 295t332.5 109q194 0 323.5 -102t209.5 -291t80 -429q0 -241 -80.5 -431t-209.5 -291t-323 -101t-323 101t-209.5 291t-80.5 431zM126 776q0 -195 70 -369t180.5 -251.5t238.5 -77.5t240 80.5t180.5 252.5t68.5 365q0 192 -69 365t-181 253 t-239 80q-131 0 -244 -83.5t-179 -255t-66 -359.5zM355 339v914h220q176 0 238.5 -64.5t62.5 -146.5q0 -74 -42 -151t-132 -128l236 -424h-166l-196 379h-82v-379h-139zM494 829h116q64 36 95.5 82.5t31.5 104.5q0 59 -41.5 93t-156.5 34h-45v-314z" />
<glyph unicode="&#xaf;" d="M335 1288v124h559v-124h-559z" />
<glyph unicode="&#xb0;" d="M343 1326q0 113 80.5 192.5t191.5 79.5q110 0 190.5 -79.5t80.5 -192.5q0 -110 -79.5 -190.5t-191.5 -80.5q-114 0 -193 80.5t-79 190.5zM436 1326q0 -70 51.5 -124t127.5 -54q75 0 126.5 54t51.5 124q0 73 -52.5 126t-125.5 53q-74 0 -126.5 -53t-52.5 -126z" />
<glyph unicode="&#xb1;" d="M71 0v155h1086v-155h-1086zM71 776v155h465v465h156v-465h465v-155h-465v-466h-156v466h-465z" />
<glyph unicode="&#xb2;" d="M238 644v116q0 59 49 126.5t183 167.5l84 62q145 109 206 163q60 54 60 96q0 50 -69.5 74.5t-139.5 24.5q-54 0 -122 -7t-220 -50v125q177 57 366 56q178 0 259 -58.5t81 -147.5q0 -65 -49 -131q-50 -66 -189 -167l-91 -65l-76 -54q-71 -54 -117.5 -100t-53.5 -99h591 v-132h-752z" />
<glyph unicode="&#xb3;" d="M261 661v143q178 -59 320 -59q130 0 211.5 50.5t81.5 121.5q0 85 -99.5 127t-298.5 42h-83v124h114q154 0 229.5 48t75.5 106q0 48 -61.5 79t-177.5 31q-133 0 -289 -43v132q158 35 285 35q213 0 309 -67q40 -27 64.5 -69.5t24.5 -84.5q0 -53 -38 -111t-131 -98 q111 -29 171 -91.5t60 -150.5q0 -138 -128.5 -221.5t-339.5 -83.5q-161 0 -300 40z" />
<glyph unicode="&#xb4;" d="M320 1288l296 326h216l-342 -326h-170z" />
<glyph unicode="&#xb5;" d="M122 -372v1489h186v-649q0 -189 59 -263t147 -74t170.5 65.5t205.5 261.5v659h186v-1117h-186v242q-76 -141 -175 -207t-196 -66q-34 0 -71.5 8t-65.5 20.5t-74 49.5v-419h-186z" />
<glyph unicode="&#xb6;" d="M87 1124q0 111 56 214.5t156.5 158.5t344.5 55h537v-156h-163v-1768h-155v1768h-155v-1768h-156v1055q-235 24 -350 150.5t-115 290.5z" />
<glyph unicode="&#xb7;" d="M451 543q0 61 46.5 112t116.5 51q69 0 116 -50.5t47 -112.5t-46.5 -112.5t-116.5 -50.5t-116.5 50.5t-46.5 112.5z" />
<glyph unicode="&#xb8;" d="M444 -318q59 -31 119 -31q35 0 63 21t28 44q0 68 -186 87l109 197h108l-73 -131q106 -21 139.5 -65.5t33.5 -92.5q0 -56 -44 -101t-138 -45q-83 0 -159 28v89z" />
<glyph unicode="&#xb9;" d="M269 644v124h310v663q-145 -81 -310 -122v126q181 55 314 140h136v-807h302v-124h-752z" />
<glyph unicode="&#xba;" d="M180 1241q0 143 108 250t326 107t326.5 -106.5t108.5 -250.5q0 -143 -108.5 -250t-326.5 -107t-326 107t-108 250zM335 1241q0 -113 77.5 -173t201.5 -60t202 60t78 173q0 112 -78 172.5t-202 60.5t-201.5 -60t-77.5 -173z" />
<glyph unicode="&#xbb;" d="M106 171l312 388l-312 398l113 98l383 -419v-155l-383 -419zM579 171l312 388l-312 398l113 98l384 -419v-155l-384 -419z" />
<glyph unicode="&#xbc;" d="M2 -47l1057 1645h169l-1062 -1645h-164zM2 776v124h233v498l-233 -155v155l233 154h163v-652h116v-124h-512zM514 155v124l411 489h155v-489h148v-124h-148v-155h-155v155h-411zM680 279h245v293z" />
<glyph unicode="&#xbd;" d="M2 -47l1058 1645h168l-1066 -1645h-160zM2 776v124h233v498l-233 -155v155l233 154h163v-652h116v-124h-512zM630 0v124q0 30 49 93.5t169 148.5l60 42q86 61 102 87q16 24 16 58q0 51 -41 71t-91 20q-82 0 -194 -60v130q134 55 229 54q119 0 185.5 -58.5t66.5 -148.5 q0 -73 -53 -131q-54 -59 -144 -118l-45 -30q-56 -36 -91 -70q-19 -17 -31 -33.5t-24 -54.5h388v-124h-551z" />
<glyph unicode="&#xbe;" d="M2 -47l1057 1645h169l-1062 -1645h-164zM80 809v138q143 -47 216 -47q54 0 93.5 26.5t39.5 68.5q0 46 -44.5 76.5t-185.5 30.5h-73v124h81q138 0 168.5 36.5t30.5 69.5t-29.5 64t-97.5 31q-69 0 -199 -40v122q132 43 241 43q130 0 185 -63t55 -132q0 -55 -29 -100.5 t-88 -81.5q70 -28 105 -70.5t35 -100.5q0 -84 -75 -156t-223 -72q-102 0 -206 33zM514 155v124l411 489h155v-489h148v-124h-148v-155h-155v155h-411zM680 279h245v293z" />
<glyph unicode="&#xbf;" d="M176 -168q0 143 151 300l67 68l77 80l72 73q39 45 68.5 101.5t29.5 158.5v46h187v-35q0 -82 -14 -137.5t-54 -115t-119 -143.5l-62 -67q-18 -18 -52 -61l-66 -83q-83 -103 -83 -180q0 -70 60 -124t194 -54q87 0 178 23t212 91v-179q-186 -92 -388 -91q-224 0 -341 92 t-117 237zM582 997q0 59 42 101t101 42t101.5 -41.5t42.5 -101.5q0 -59 -42.5 -101.5t-101.5 -42.5t-101 42.5t-42 101.5z" />
<glyph unicode="&#xc0;" d="M33 0l478 1552h205l481 -1552h-213l-106 341h-546l-105 -341h-194zM356 2048h216l296 -326h-170zM380 496h453l-187 589l-44 156l-39 -156z" />
<glyph unicode="&#xc1;" d="M33 0l478 1552h205l481 -1552h-213l-106 341h-546l-105 -341h-194zM356 1722l296 326h216l-342 -326h-170zM380 496h453l-187 589l-44 156l-39 -156z" />
<glyph unicode="&#xc2;" d="M33 0l478 1552h205l481 -1552h-213l-106 341h-546l-105 -341h-194zM320 1722l233 326h124l233 -326h-156l-139 168l-140 -168h-155zM380 496h453l-187 589l-44 156l-39 -156z" />
<glyph unicode="&#xc3;" d="M33 0l478 1552h205l481 -1552h-213l-106 341h-546l-105 -341h-194zM298 1722q0 132 51.5 194t129.5 62q62 0 126 -40l42 -25q84 -53 116 -52q60 0 60 117h127q-6 -101 -27 -148.5t-64.5 -78t-95.5 -30.5q-64 0 -141 49l-44 28l-24 17q-34 23 -65 23q-21 0 -43.5 -23 t-22.5 -93h-125zM380 496h453l-187 589l-44 156l-39 -156z" />
<glyph unicode="&#xc4;" d="M33 0l478 1552h205l481 -1552h-213l-106 341h-546l-105 -341h-194zM273 1846q0 52 37 88t87 36t87 -36t37 -88t-36.5 -88t-87.5 -36t-87.5 36t-36.5 88zM380 496h453l-187 589l-44 156l-39 -156zM707 1846q0 52 37.5 88t87.5 36t87 -36t37 -88t-37 -88t-87 -36 q-51 0 -88 36t-37 88z" />
<glyph unicode="&#xc5;" d="M33 0l478 1552q-42 31 -63 69.5t-21 85.5q0 75 54.5 130.5t131.5 55.5t131.5 -55t54.5 -131q0 -46 -20.5 -85t-62.5 -70l481 -1552h-213l-106 341h-546l-105 -341h-194zM380 496h453l-187 589l-44 156l-39 -156zM520 1707q0 -38 27.5 -65.5t65.5 -27.5t65.5 27.5 t27.5 65.5t-27.5 65.5t-65.5 27.5t-65.5 -28t-27.5 -65z" />
<glyph unicode="&#xc6;" d="M2 0l636 1552h543v-156h-357v-535h342v-155h-342v-535h357v-171h-543v372h-314l-152 -372h-170zM381 512h257v622z" />
<glyph unicode="&#xc7;" d="M118 754q0 403 187.5 624t470.5 221q137 0 312 -65v-184q-161 94 -320 93q-121 0 -220 -82t-160 -240.5t-61 -344.5q0 -189 63 -349t161 -239.5t217 -79.5q158 0 320 93v-183q-129 -46 -192.5 -56.5t-143.5 -10.5l-45 -82q107 -21 140 -65.5t33 -92.5q0 -56 -44 -101 t-138 -45q-83 0 -159 28v89q58 -31 119 -31q35 0 63 21t28 44q0 68 -186 87l88 160q-194 49 -309.5 164.5t-169.5 269t-54 357.5z" />
<glyph unicode="&#xc8;" d="M203 0v1552h822v-156h-620v-527h558v-155h-558v-543h636v-171h-838zM367 2048h216l296 -326h-170z" />
<glyph unicode="&#xc9;" d="M203 0v1552h822v-156h-620v-527h558v-155h-558v-543h636v-171h-838zM367 1722l296 326h216l-342 -326h-170z" />
<glyph unicode="&#xca;" d="M203 0v1552h822v-156h-620v-527h558v-155h-558v-543h636v-171h-838zM320 1722l233 326h124l233 -326h-156l-139 168l-140 -168h-155z" />
<glyph unicode="&#xcb;" d="M203 0v1552h822v-156h-620v-527h558v-155h-558v-543h636v-171h-838zM281 1846q0 52 37 88t87 36q51 0 87.5 -36t36.5 -88t-36 -88t-88 -36q-51 0 -87.5 36t-36.5 88zM715 1846q0 52 37.5 88t87.5 36q51 0 87.5 -36t36.5 -88t-36.5 -88t-87.5 -36t-88 36t-37 88z" />
<glyph unicode="&#xcc;" d="M172 0v155h341v1241h-341v156h884v-156h-341v-1241h341v-155h-884zM359 2048h216l296 -326h-170z" />
<glyph unicode="&#xcd;" d="M172 0v155h341v1241h-341v156h884v-156h-341v-1241h341v-155h-884zM359 1722l296 326h216l-342 -326h-170z" />
<glyph unicode="&#xce;" d="M172 0v155h341v1241h-341v156h884v-156h-341v-1241h341v-155h-884zM320 1722l233 326h124l233 -326h-156l-139 168l-140 -168h-155z" />
<glyph unicode="&#xcf;" d="M172 0v155h341v1241h-341v156h884v-156h-341v-1241h341v-155h-884zM273 1846q0 52 37 88t87 36t87 -36t37 -88t-36.5 -88t-87.5 -36t-87.5 36t-36.5 88zM707 1846q0 52 37.5 88t87.5 36t87 -36t37 -88t-37 -88t-87 -36q-51 0 -88 36t-37 88z" />
<glyph unicode="&#xd0;" d="M2 714v155h155v683h368q273 0 382 -77t176 -267.5t67 -435.5q0 -232 -67 -414t-176 -270t-340 -88h-410v714h-155zM359 171h135q218 0 295 63.5t118.5 202.5t41.5 367q0 223 -41.5 349.5t-114 184.5t-283.5 58h-151v-527h248v-155h-248v-543z" />
<glyph unicode="&#xd1;" d="M126 0v1552h182l549 -1033l60 -154h5l-5 154v1033h186v-1552h-186l-534 1016l-75 163l4 -161v-1018h-186zM298 1722q0 132 51.5 194t129.5 62q62 0 126 -40l42 -25q84 -53 116 -52q60 0 60 117h127q-6 -101 -27 -148.5t-64.5 -78t-95.5 -30.5q-64 0 -141 49l-44 28 l-24 17q-34 23 -65 23q-21 0 -43.5 -23t-22.5 -93h-125z" />
<glyph unicode="&#xd2;" d="M71 776q0 376 139.5 599t403.5 223t403.5 -222.5t139.5 -599.5q0 -378 -139.5 -600.5t-403.5 -222.5t-403.5 222.5t-139.5 600.5zM273 776q0 -336 97.5 -501.5t243.5 -165.5q145 0 243 165.5t98 501.5q0 335 -97.5 501t-243.5 166t-243.5 -165.5t-97.5 -501.5zM359 2048 h216l296 -326h-170z" />
<glyph unicode="&#xd3;" d="M71 776q0 376 139.5 599t403.5 223t403.5 -222.5t139.5 -599.5q0 -378 -139.5 -600.5t-403.5 -222.5t-403.5 222.5t-139.5 600.5zM273 776q0 -336 97.5 -501.5t243.5 -165.5q145 0 243 165.5t98 501.5q0 335 -97.5 501t-243.5 166t-243.5 -165.5t-97.5 -501.5zM359 1722 l296 326h216l-342 -326h-170z" />
<glyph unicode="&#xd4;" d="M71 776q0 376 139.5 599t403.5 223t403.5 -222.5t139.5 -599.5q0 -378 -139.5 -600.5t-403.5 -222.5t-403.5 222.5t-139.5 600.5zM273 776q0 -336 97.5 -501.5t243.5 -165.5q145 0 243 165.5t98 501.5q0 335 -97.5 501t-243.5 166t-243.5 -165.5t-97.5 -501.5zM320 1722 l233 326h124l233 -326h-156l-139 168l-140 -168h-155z" />
<glyph unicode="&#xd5;" d="M71 776q0 376 139.5 599t403.5 223t403.5 -222.5t139.5 -599.5q0 -378 -139.5 -600.5t-403.5 -222.5t-403.5 222.5t-139.5 600.5zM273 776q0 -336 97.5 -501.5t243.5 -165.5q145 0 243 165.5t98 501.5q0 335 -97.5 501t-243.5 166t-243.5 -165.5t-97.5 -501.5zM289 1722 q0 132 51.5 194t129.5 62q62 0 126 -40l42 -25q83 -53 116 -52q60 0 60 117h127q-6 -101 -27 -148.5t-64.5 -78t-95.5 -30.5q-65 0 -141 49l-44 28l-24 17q-34 23 -65 23q-21 0 -43.5 -23t-22.5 -93h-125z" />
<glyph unicode="&#xd6;" d="M71 776q0 376 139.5 599t403.5 223t403.5 -222.5t139.5 -599.5q0 -378 -139.5 -600.5t-403.5 -222.5t-403.5 222.5t-139.5 600.5zM273 776q0 -336 97.5 -501.5t243.5 -165.5q145 0 243 165.5t98 501.5q0 335 -97.5 501t-243.5 166t-243.5 -165.5t-97.5 -501.5zM273 1846 q0 52 37 88t87 36t87 -36t37 -88t-36.5 -88t-87.5 -36t-87.5 36t-36.5 88zM707 1846q0 52 37.5 88t87.5 36t87 -36t37 -88t-37 -88t-87 -36q-51 0 -88 36t-37 88z" />
<glyph unicode="&#xd7;" d="M71 112l435 429l-435 438l113 107l431 -430l429 430l113 -107l-432 -438l432 -429l-113 -112l-429 436l-431 -436z" />
<glyph unicode="&#xd8;" d="M71 -109l148 276q-63 100 -90 189.5t-42.5 198.5t-15.5 230q0 398 147.5 605.5t390.5 207.5q55 0 112 -11.5t102 -30.5t108 -68l93 172h133l-142 -273q60 -102 86.5 -184.5t41 -202t14.5 -235.5q0 -249 -66.5 -436t-180 -281.5t-306.5 -94.5q-82 0 -143.5 19t-154.5 97 l-97 -178h-138zM273 789q0 -48 3 -146.5t12 -149.5t33 -133l525 969q-61 73 -119 93.5t-113 20.5q-154 0 -247.5 -174.5t-93.5 -479.5zM390 225q53 -66 108.5 -91t110.5 -25q175 0 260.5 184.5t85.5 483.5q0 52 -3 138t-10.5 140.5t-30.5 139.5z" />
<glyph unicode="&#xd9;" d="M126 559v993h202v-1019q0 -202 33.5 -275t103 -111.5t154.5 -38.5q90 0 160.5 41.5t104 130t33.5 332.5v940h186v-1013q0 -217 -64.5 -339.5t-168.5 -184.5t-262 -62q-145 0 -256.5 54t-168.5 162t-57 390zM359 2048h216l296 -326h-170z" />
<glyph unicode="&#xda;" d="M126 559v993h202v-1019q0 -202 33.5 -275t103 -111.5t154.5 -38.5q90 0 160.5 41.5t104 130t33.5 332.5v940h186v-1013q0 -217 -64.5 -339.5t-168.5 -184.5t-262 -62q-145 0 -256.5 54t-168.5 162t-57 390zM359 1722l296 326h216l-342 -326h-170z" />
<glyph unicode="&#xdb;" d="M126 559v993h202v-1019q0 -202 33.5 -275t103 -111.5t154.5 -38.5q90 0 160.5 41.5t104 130t33.5 332.5v940h186v-1013q0 -217 -64.5 -339.5t-168.5 -184.5t-262 -62q-145 0 -256.5 54t-168.5 162t-57 390zM320 1722l233 326h124l233 -326h-156l-139 168l-140 -168h-155z " />
<glyph unicode="&#xdc;" d="M126 559v993h202v-1019q0 -202 33.5 -275t103 -111.5t154.5 -38.5q90 0 160.5 41.5t104 130t33.5 332.5v940h186v-1013q0 -217 -64.5 -339.5t-168.5 -184.5t-262 -62q-145 0 -256.5 54t-168.5 162t-57 390zM273 1846q0 52 37 88t87 36t87 -36t37 -88t-36.5 -88t-87.5 -36 t-87.5 36t-36.5 88zM707 1846q0 52 37.5 88t87.5 36t87 -36t37 -88t-37 -88t-87 -36q-51 0 -88 36t-37 88z" />
<glyph unicode="&#xdd;" d="M52 1552h229l345 -616l344 616h207l-461 -834v-718h-202v718zM359 1722l296 326h216l-342 -326h-170z" />
<glyph unicode="&#xde;" d="M176 0v1552h202v-264h184q238 0 347 -53.5t167 -156.5t58 -229q0 -150 -78 -279t-217.5 -198t-378.5 -69h-82v-303h-202zM378 458h87q187 0 278 48t140 139.5t49 196.5q0 135 -87.5 213t-345.5 78h-121v-675z" />
<glyph unicode="&#xdf;" d="M130 0v1122q0 199 57.5 304t161 162t249.5 57q191 0 276.5 -89.5t85.5 -187.5q0 -62 -35 -121.5t-138 -148.5l-68 -58q-20 -17 -60 -55.5t-40 -78.5q0 -28 12 -48t71 -63l64 -47l126 -87q105 -72 177 -157q70 -85 70 -200q0 -146 -113 -240.5t-289 -94.5q-38 0 -91 3.5 t-82.5 7.5t-84.5 20v185q60 -26 102 -36.5t84 -17.5t70 -7q50 0 105 18t83.5 58.5t28.5 82.5q0 62 -48 122q-49 60 -163 136l-120 80q-93 61 -144.5 121t-51.5 134q0 56 29.5 108.5t130.5 145.5l59 55q49 44 81.5 87.5t32.5 90.5q0 64 -62 95t-122 31q-69 0 -127.5 -33.5 t-94.5 -102t-36 -231.5v-1122h-186z" />
<glyph unicode="&#xe0;" d="M102 457q0 194 74 346.5t198 241t307 88.5q54 0 160 -11q17 -2 48 -5h187v-789q0 -202 42 -328h-194q-22 92 -35 251q-86 -139 -205 -210.5t-219 -71.5q-140 0 -251.5 121t-111.5 367zM304 482q0 -166 62.5 -250.5t142.5 -84.5q87 0 191.5 88t188.5 237v479 q-99 26 -184 26q-172 0 -286.5 -133t-114.5 -362zM386 1614h216l296 -326h-170z" />
<glyph unicode="&#xe1;" d="M102 457q0 194 74 346.5t198 241t307 88.5q54 0 160 -11q17 -2 48 -5h187v-789q0 -202 42 -328h-194q-22 92 -35 251q-86 -139 -205 -210.5t-219 -71.5q-140 0 -251.5 121t-111.5 367zM304 482q0 -166 62.5 -250.5t142.5 -84.5q87 0 191.5 88t188.5 237v479 q-99 26 -184 26q-172 0 -286.5 -133t-114.5 -362zM479 1288l296 326h216l-342 -326h-170z" />
<glyph unicode="&#xe2;" d="M102 457q0 194 74 346.5t198 241t307 88.5q54 0 160 -11q17 -2 48 -5h187v-789q0 -202 42 -328h-194q-22 92 -35 251q-86 -139 -205 -210.5t-219 -71.5q-140 0 -251.5 121t-111.5 367zM304 482q0 -166 62.5 -250.5t142.5 -84.5q87 0 191.5 88t188.5 237v479 q-99 26 -184 26q-172 0 -286.5 -133t-114.5 -362zM409 1288l233 326h124l233 -326h-156l-139 168l-140 -168h-155z" />
<glyph unicode="&#xe3;" d="M102 457q0 194 74 346.5t198 241t307 88.5q54 0 160 -11q17 -2 48 -5h187v-789q0 -202 42 -328h-194q-22 92 -35 251q-86 -139 -205 -210.5t-219 -71.5q-140 0 -251.5 121t-111.5 367zM304 482q0 -166 62.5 -250.5t142.5 -84.5q87 0 191.5 88t188.5 237v479 q-99 26 -184 26q-172 0 -286.5 -133t-114.5 -362zM332 1288q0 132 51.5 194t129.5 62q62 0 126 -40l42 -25q83 -53 116 -52q60 0 60 117h127q-6 -101 -27 -148.5t-64.5 -78t-95.5 -30.5q-64 0 -141 49l-44 28l-24 17q-34 23 -65 23q-21 0 -43.5 -23.5t-22.5 -92.5h-125z" />
<glyph unicode="&#xe4;" d="M102 457q0 194 74 346.5t198 241t307 88.5q54 0 160 -11q17 -2 48 -5h187v-789q0 -202 42 -328h-194q-22 92 -35 251q-86 -139 -205 -210.5t-219 -71.5q-140 0 -251.5 121t-111.5 367zM304 482q0 -166 62.5 -250.5t142.5 -84.5q87 0 191.5 88t188.5 237v479 q-99 26 -184 26q-172 0 -286.5 -133t-114.5 -362zM331 1412q0 52 37 88t87 36t87 -36t37 -88t-36.5 -88t-87.5 -36q-52 0 -88 36t-36 88zM765 1412q0 52 37.5 88t87.5 36t87 -36t37 -88t-37 -88t-87 -36q-52 0 -88.5 36t-36.5 88z" />
<glyph unicode="&#xe5;" d="M102 457q0 194 74 346.5t198 241t307 88.5q54 0 160 -11q17 -2 48 -5h187v-789q0 -202 42 -328h-194q-22 92 -35 251q-86 -139 -205 -210.5t-219 -71.5q-140 0 -251.5 121t-111.5 367zM304 482q0 -166 62.5 -250.5t142.5 -84.5q87 0 191.5 88t188.5 237v479 q-99 26 -184 26q-172 0 -286.5 -133t-114.5 -362zM471 1474q0 75 54.5 130.5t131.5 55.5q78 0 132 -55.5t54 -130.5q0 -73 -54 -129.5t-132 -56.5t-132 56t-54 130zM564 1474q0 -38 27.5 -65.5t65.5 -27.5q39 0 66 27.5t27 65.5t-27 65.5t-66 27.5q-38 0 -65.5 -27.5 t-27.5 -65.5z" />
<glyph unicode="&#xe6;" d="M64 483q0 200 55.5 349.5t148 232.5t198.5 83q35 0 74.5 -7.5t71 -19t79.5 -44.5q72 55 112.5 63t71.5 8q127 0 209 -113.5t82 -449.5v-50h-404v-83q0 -147 22.5 -208t64.5 -90.5t94 -29.5q101 0 223 79v-170q-141 -64 -254 -64q-74 0 -136 25.5t-107.5 76.5t-76.5 155 q-52 -131 -120 -194t-132 -63q-112 0 -194 144t-82 370zM250 463q0 -118 33 -203q33 -86 84 -82q105 7 209 292v489q-24 18 -47 26t-45 8q-117 0 -175.5 -165t-58.5 -365zM762 667h217v32q0 176 -27 235t-79 59q-55 0 -83 -73.5t-28 -220.5v-32z" />
<glyph unicode="&#xe7;" d="M164 547q0 272 169 436.5t396 164.5q173 0 366 -65v-179q-195 89 -349 89q-102 0 -192 -50.5t-139 -157.5t-49 -220q0 -150 94.5 -287.5t296.5 -137.5q61 0 120 8.5t218 62.5v-179q-156 -57 -338 -66l-55 -97q108 -21 141 -65.5t33 -92.5q0 -56 -44.5 -101t-137.5 -45 q-83 0 -159 28v89q58 -31 118 -31q35 0 63 21t28 44q0 68 -185 87l93 169q-166 28 -272.5 112t-161 196.5t-54.5 266.5z" />
<glyph unicode="&#xe8;" d="M130 556q0 153 68 294t190 219.5t272 78.5q199 0 319.5 -142t120.5 -438v-40h-770q0 -116 48.5 -212t127.5 -144t180 -48q180 0 398 120v-170q-223 -106 -422 -106q-151 0 -270 75t-190.5 214.5t-71.5 298.5zM341 667h557v27q0 137 -67 218t-179 81q-113 0 -196 -82.5 t-115 -243.5zM398 1614h216l296 -326h-170z" />
<glyph unicode="&#xe9;" d="M130 556q0 153 68 294t190 219.5t272 78.5q199 0 319.5 -142t120.5 -438v-40h-770q0 -116 48.5 -212t127.5 -144t180 -48q180 0 398 120v-170q-223 -106 -422 -106q-151 0 -270 75t-190.5 214.5t-71.5 298.5zM341 667h557v27q0 137 -67 218t-179 81q-113 0 -196 -82.5 t-115 -243.5zM444 1288l296 326h216l-342 -326h-170z" />
<glyph unicode="&#xea;" d="M130 556q0 153 68 294t190 219.5t272 78.5q199 0 319.5 -142t120.5 -438v-40h-770q0 -116 48.5 -212t127.5 -144t180 -48q180 0 398 120v-170q-223 -106 -422 -106q-151 0 -270 75t-190.5 214.5t-71.5 298.5zM341 667h557v27q0 137 -67 218t-179 81q-113 0 -196 -82.5 t-115 -243.5zM359 1288l233 326h124l233 -326h-156l-139 168l-140 -168h-155z" />
<glyph unicode="&#xeb;" d="M130 556q0 153 68 294t190 219.5t272 78.5q199 0 319.5 -142t120.5 -438v-40h-770q0 -116 48.5 -212t127.5 -144t180 -48q180 0 398 120v-170q-223 -106 -422 -106q-151 0 -270 75t-190.5 214.5t-71.5 298.5zM327 1412q0 52 37 88t87 36q51 0 87.5 -36t36.5 -88t-36 -88 t-88 -36q-51 0 -87.5 36t-36.5 88zM341 667h557v27q0 137 -67 218t-179 81q-113 0 -196 -82.5t-115 -243.5zM761 1412q0 52 37.5 88t87.5 36q51 0 87.5 -36t36.5 -88t-36.5 -88t-87.5 -36t-88 36t-37 88z" />
<glyph unicode="&#xec;" d="M157 962v155h496v-962h311v-155h-497v962h-310zM304 1614h216l296 -326h-170z" />
<glyph unicode="&#xed;" d="M157 962v155h496v-962h311v-155h-497v962h-310zM304 1288l296 326h216l-342 -326h-170z" />
<glyph unicode="&#xee;" d="M157 962v155h496v-962h311v-155h-497v962h-310zM266 1288l233 326h124l233 -326h-156l-139 168l-140 -168h-155z" />
<glyph unicode="&#xef;" d="M157 962v155h496v-962h311v-155h-497v962h-310zM219 1412q0 52 37 88t87 36t87 -36t37 -88t-36.5 -88t-87.5 -36q-52 0 -88 36t-36 88zM653 1412q0 52 37.5 88t87.5 36t87 -36t37 -88t-37 -88t-87 -36q-52 0 -88.5 36t-36.5 88z" />
<glyph unicode="&#xf0;" d="M87 536q0 167 66 290t188 191.5t256 68.5q57 0 120 -13.5t169 -81.5q-37 98 -96 180.5t-180 172.5l-225 -204l-103 117l181 161q-128 40 -266 40h-25v156h34q119 0 211 -11t193 -54l215 195l103 -116l-178 -160q150 -121 229.5 -247.5t121 -288t41.5 -319.5 q0 -295 -138 -469.5t-392 -174.5q-237 0 -381 158.5t-144 408.5zM281 528q0 -177 93 -290.5t241 -113.5q146 0 239.5 113.5t93.5 290.5t-93 290t-240 113q-148 0 -241 -113.5t-93 -289.5z" />
<glyph unicode="&#xf1;" d="M157 0v1117h186v-244q80 129 193 202t226 73q99 0 180 -52.5t113.5 -137.5t32.5 -334v-624h-186v647q0 162 -15.5 213t-57 84t-90.5 33q-98 0 -210.5 -93t-185.5 -233v-651h-186zM305 1288q0 132 51.5 194t129.5 62q62 0 126 -40l42 -25q83 -53 116 -52q59 0 60 117h127 q-6 -101 -27 -148.5t-64.5 -78t-95.5 -30.5q-65 0 -141 49l-44 28l-24 17q-34 23 -65 23q-22 0 -44 -23.5t-22 -92.5h-125z" />
<glyph unicode="&#xf2;" d="M87 559q0 256 144 422.5t384 166.5q239 0 383 -167t144 -422t-144 -422.5t-383 -167.5q-240 0 -384 167.5t-144 422.5zM289 559q0 -203 88 -319t238 -116q148 0 236.5 116t88.5 319q0 202 -88 318t-237 116q-150 0 -238 -116t-88 -318zM359 1614h216l296 -326h-170z" />
<glyph unicode="&#xf3;" d="M87 559q0 256 144 422.5t384 166.5q239 0 383 -167t144 -422t-144 -422.5t-383 -167.5q-240 0 -384 167.5t-144 422.5zM289 559q0 -203 88 -319t238 -116q148 0 236.5 116t88.5 319q0 202 -88 318t-237 116q-150 0 -238 -116t-88 -318zM359 1288l296 326h216l-342 -326 h-170z" />
<glyph unicode="&#xf4;" d="M87 559q0 256 144 422.5t384 166.5q239 0 383 -167t144 -422t-144 -422.5t-383 -167.5q-240 0 -384 167.5t-144 422.5zM289 559q0 -203 88 -319t238 -116q148 0 236.5 116t88.5 319q0 202 -88 318t-237 116q-150 0 -238 -116t-88 -318zM320 1288l233 326h124l233 -326 h-156l-139 168l-140 -168h-155z" />
<glyph unicode="&#xf5;" d="M87 559q0 256 144 422.5t384 166.5q239 0 383 -167t144 -422t-144 -422.5t-383 -167.5q-240 0 -384 167.5t-144 422.5zM289 559q0 -203 88 -319t238 -116q148 0 236.5 116t88.5 319q0 202 -88 318t-237 116q-150 0 -238 -116t-88 -318zM289 1288q0 132 51.5 194t129.5 62 q62 0 126 -40l42 -25q83 -53 116 -52q60 0 60 117h127q-6 -101 -27 -148.5t-64.5 -78t-95.5 -30.5q-65 0 -141 49l-44 28l-24 17q-34 23 -65 23q-21 0 -43.5 -23.5t-22.5 -92.5h-125z" />
<glyph unicode="&#xf6;" d="M87 559q0 256 144 422.5t384 166.5q239 0 383 -167t144 -422t-144 -422.5t-383 -167.5q-240 0 -384 167.5t-144 422.5zM273 1412q0 52 37 88t87 36t87 -36t37 -88t-36.5 -88t-87.5 -36t-87.5 36t-36.5 88zM289 559q0 -203 88 -319t238 -116q148 0 236.5 116t88.5 319 q0 202 -88 318t-237 116q-150 0 -238 -116t-88 -318zM707 1412q0 52 37.5 88t87.5 36t87 -36t37 -88t-37 -88t-87 -36q-51 0 -88 36t-37 88z" />
<glyph unicode="&#xf7;" d="M71 465v156h1086v-156h-1086zM471 167q0 59 43 101t100 42t100.5 -42.5t43.5 -100.5t-43.5 -101t-100.5 -43q-58 0 -100.5 43t-42.5 101zM471 919q0 59 43 101.5t100 42.5t100.5 -43t43.5 -101q0 -57 -43.5 -100t-100.5 -43q-58 0 -100.5 43t-42.5 100z" />
<glyph unicode="&#xf8;" d="M87 -93l150 221q-150 189 -150 436q0 243 135 413.5t391 170.5q50 0 100 -7t89.5 -20t95.5 -46l94 135h150l-149 -215q149 -193 149 -436q0 -237 -132 -413.5t-396 -176.5q-63 0 -123.5 10.5t-158.5 64.5l-96 -137h-149zM289 564q-1 -149 52 -284l464 663q-89 50 -190 50 q-159 0 -242.5 -115.5t-83.5 -313.5zM424 177q96 -53 181 -53q183 0 259 122.5t76 307.5q0 160 -51 291z" />
<glyph unicode="&#xf9;" d="M143 493v624h186v-647q0 -161 15.5 -212.5t57 -84.5t89.5 -33q98 0 210.5 92.5t186.5 233.5v651h186v-1117h-186v245q-91 -138 -200.5 -207t-219.5 -69q-98 0 -179.5 52.5t-113.5 138t-32 333.5zM360 1614h216l296 -326h-170z" />
<glyph unicode="&#xfa;" d="M143 493v624h186v-647q0 -161 15.5 -212.5t57 -84.5t89.5 -33q98 0 210.5 92.5t186.5 233.5v651h186v-1117h-186v245q-91 -138 -200.5 -207t-219.5 -69q-98 0 -179.5 52.5t-113.5 138t-32 333.5zM407 1288l296 326h216l-342 -326h-170z" />
<glyph unicode="&#xfb;" d="M143 493v624h186v-647q0 -161 15.5 -212.5t57 -84.5t89.5 -33q98 0 210.5 92.5t186.5 233.5v651h186v-1117h-186v245q-91 -138 -200.5 -207t-219.5 -69q-98 0 -179.5 52.5t-113.5 138t-32 333.5zM322 1288l233 326h124l233 -326h-156l-139 168l-140 -168h-155z" />
<glyph unicode="&#xfc;" d="M143 493v624h186v-647q0 -161 15.5 -212.5t57 -84.5t89.5 -33q98 0 210.5 92.5t186.5 233.5v651h186v-1117h-186v245q-91 -138 -200.5 -207t-219.5 -69q-98 0 -179.5 52.5t-113.5 138t-32 333.5zM275 1412q0 52 37 88t87 36t87 -36t37 -88t-36.5 -88t-87.5 -36t-87.5 36 t-36.5 88zM709 1412q0 52 37.5 88t87.5 36t87 -36t37 -88t-37 -88t-87 -36q-51 0 -88 36t-37 88z" />
<glyph unicode="&#xfd;" d="M49 -287q77 -24 147 -24q90 0 160 35t128 124t82 154l17 43l-516 1072h205l411 -838l344 838h187l-433 -1038q-138 -329 -261 -437t-319 -108q-85 0 -152 15v164zM453 1288l296 326h216l-342 -326h-170z" />
<glyph unicode="&#xfe;" d="M137 -434v1986h186v-686q86 140 205 211t219 71q140 0 252 -121t112 -367q0 -291 -166 -488q-78 -92 -175 -140t-239 -48q-52 0 -160 11q-16 2 -48 5v-434h-186zM323 166q101 -25 186 -26q169 0 284.5 132.5t115.5 362.5q0 167 -63 251t-143 84q-87 0 -191.5 -88 t-188.5 -237v-479z" />
<glyph unicode="&#xff;" d="M49 -287q77 -24 147 -24q90 0 160 35t128 124t82 154l17 43l-516 1072h205l411 -838l344 838h187l-433 -1038q-138 -329 -261 -437t-319 -108q-85 0 -152 15v164zM321 1412q0 52 37 88t87 36q51 0 87.5 -36t36.5 -88t-36 -88t-88 -36q-51 0 -87.5 36t-36.5 88zM755 1412 q0 52 37.5 88t87.5 36q51 0 87.5 -36t36.5 -88t-36.5 -88t-87.5 -36t-88 36t-37 88z" />
<glyph unicode="&#x152;" d="M36 795q0 253 61.5 439t164.5 267.5t217 81.5q33 0 68 -10t86 -60v39h536v-156h-349v-535h333v-155h-333v-535h364v-171h-551v39q-68 -60 -103.5 -65.5t-53.5 -5.5q-115 0 -221.5 94t-162.5 293.5t-56 439.5zM238 780q0 -248 55.5 -452t196.5 -204q70 0 106.5 70.5 t36.5 326.5v501q0 265 -37.5 335.5t-109.5 70.5q-131 0 -189.5 -184.5t-58.5 -463.5z" />
<glyph unicode="&#x153;" d="M67 570q0 217 76.5 397.5t258.5 180.5q80 0 139 -41.5t98 -124.5q44 83 103 124.5t133 41.5q119 0 202.5 -112.5t83.5 -438.5v-62h-404v-61q0 -177 24.5 -236t67 -86.5t92.5 -27.5q103 0 220 78v-173q-140 -60 -251 -60q-85 0 -155.5 33t-129.5 133q-59 -110 -124.5 -138 t-119.5 -28q-89 0 -159.5 63t-112.5 208.5t-42 329.5zM245 544q0 -166 39.5 -293t131.5 -127q66 0 110.5 86t44.5 283v102q0 127 -6.5 178t-24.5 102q-19 50 -53 85.5t-75 32.5q-85 -5 -126 -129t-41 -320zM757 667h218v33q0 184 -30 238.5t-77 54.5q-48 0 -79.5 -69.5 t-31.5 -222.5v-34z" />
<glyph unicode="&#x178;" d="M52 1552h229l345 -616l344 616h207l-461 -834v-718h-202v718zM273 1846q0 52 37 88t87 36t87 -36t37 -88t-36.5 -88t-87.5 -36t-87.5 36t-36.5 88zM707 1846q0 52 37.5 88t87.5 36t87 -36t37 -88t-37 -88t-87 -36q-51 0 -88 36t-37 88z" />
<glyph unicode="&#x2c6;" d="M320 1288l233 326h124l233 -326h-156l-139 168l-140 -168h-155z" />
<glyph unicode="&#x2dc;" d="M289 1288q0 132 51.5 194t129.5 62q62 0 126 -40l42 -25q83 -53 116 -52q60 0 60 117h127q-6 -101 -27 -148.5t-64.5 -78t-95.5 -30.5q-65 0 -141 49l-44 28l-24 17q-34 23 -65 23q-21 0 -43.5 -23.5t-22.5 -92.5h-125z" />
<glyph unicode="&#x2000;" horiz-adv-x="1024" />
<glyph unicode="&#x2001;" horiz-adv-x="2048" />
<glyph unicode="&#x2002;" horiz-adv-x="1024" />
<glyph unicode="&#x2003;" horiz-adv-x="2048" />
<glyph unicode="&#x2004;" horiz-adv-x="682" />
<glyph unicode="&#x2005;" horiz-adv-x="512" />
<glyph unicode="&#x2006;" horiz-adv-x="341" />
<glyph unicode="&#x2007;" horiz-adv-x="341" />
<glyph unicode="&#x2008;" horiz-adv-x="256" />
<glyph unicode="&#x2009;" horiz-adv-x="409" />
<glyph unicode="&#x200a;" horiz-adv-x="113" />
<glyph unicode="&#x2010;" d="M227 551v155h776v-155h-776z" />
<glyph unicode="&#x2011;" d="M227 551v155h776v-155h-776z" />
<glyph unicode="&#x2012;" d="M227 551v155h776v-155h-776z" />
<glyph unicode="&#x2013;" d="M71 528v155h1086v-155h-1086z" />
<glyph unicode="&#x2014;" d="M71 528v124h1086v-124h-1086z" />
<glyph unicode="&#x2018;" d="M424 1186q0 111 48 208t130.5 165.5t201.5 85.5v-125q-71 -20 -109 -54.5t-60.5 -89t-22.5 -132.5q93 0 137 -52.5t44 -111.5q0 -69 -49 -117t-114 -48q-84 0 -145 72.5t-61 198.5z" />
<glyph unicode="&#x2019;" d="M424 915v125q72 20 109.5 54.5t60 89t22.5 132.5q-94 0 -137.5 52.5t-43.5 111.5q0 69 49 117t114 48q84 0 145 -72.5t61 -198.5q0 -111 -48 -208t-130.5 -165.5t-201.5 -85.5z" />
<glyph unicode="&#x201a;" d="M424 -310q72 20 109.5 55t57 82t25.5 139q-94 0 -137.5 52.5t-43.5 112.5q0 69 49 116.5t114 47.5q84 0 145 -72.5t61 -198.5q0 -110 -48 -207.5t-130.5 -166.5t-201.5 -84v124z" />
<glyph unicode="&#x201c;" d="M180 1186q0 111 48 208t130.5 165.5t201.5 85.5v-125q-72 -20 -109.5 -54.5t-60 -89t-22.5 -132.5q94 0 137.5 -52.5t43.5 -111.5q0 -69 -49 -117t-114 -48q-84 0 -145 72.5t-61 198.5zM669 1186q0 111 48 208t130.5 165.5t201.5 85.5v-125q-72 -20 -109.5 -54.5t-60 -89 t-22.5 -132.5q92 0 136.5 -52.5t44.5 -111.5q0 -69 -49 -117t-114 -48q-85 0 -145.5 72.5t-60.5 198.5z" />
<glyph unicode="&#x201d;" d="M180 915v125q71 20 109 54.5t60.5 89t22.5 132.5q-93 0 -137 52.5t-44 111.5q0 69 49 117t114 48q84 0 145 -72.5t61 -198.5q0 -111 -48 -208t-130.5 -165.5t-201.5 -85.5zM669 915v125q71 20 109 54.5t60.5 89t22.5 132.5q-93 0 -137 52.5t-44 111.5q0 69 48.5 117 t113.5 48q86 0 146.5 -72.5t60.5 -198.5q0 -111 -48 -208t-130.5 -165.5t-201.5 -85.5z" />
<glyph unicode="&#x201e;" d="M180 -310q71 20 109 55t57.5 82t25.5 139q-93 0 -137 52.5t-44 112.5q0 69 49 116.5t114 47.5q84 0 145 -72.5t61 -198.5q0 -110 -48 -207.5t-130.5 -166.5t-201.5 -84v124zM669 -310q71 20 109 55t57.5 82t25.5 139q-93 0 -137 52.5t-44 112.5q0 69 48.5 116.5 t113.5 47.5q86 0 146.5 -72.5t60.5 -198.5q0 -110 -48 -207.5t-130.5 -166.5t-201.5 -84v124z" />
<glyph unicode="&#x2022;" d="M188 768q0 113 57 213t157 157t213 57q111 0 211.5 -57t157.5 -156.5t57 -213.5q0 -117 -59 -217t-157.5 -155t-209.5 -55q-113 0 -211 55t-157 155t-59 217z" />
<glyph unicode="&#x2026;" d="M61 97q0 59 43.5 101t100.5 42t100 -42.5t43 -100.5t-43 -101t-100 -43t-100.5 43t-43.5 101zM471 97q0 59 43 101t100 42t100.5 -42.5t43.5 -100.5t-43.5 -101t-100.5 -43q-58 0 -100.5 43t-42.5 101zM880 97q0 59 43.5 101t100.5 42t100 -42.5t43 -100.5t-43 -101 t-100 -43t-100.5 43t-43.5 101z" />
<glyph unicode="&#x202f;" horiz-adv-x="409" />
<glyph unicode="&#x2039;" d="M331 484v160l501 473l112 -118l-429 -438l429 -446l-112 -115z" />
<glyph unicode="&#x203a;" d="M285 118l429 438l-429 446l112 115l501 -484v-160l-501 -473z" />
<glyph unicode="&#x205f;" horiz-adv-x="512" />
<glyph unicode="&#x20ac;" d="M-40 495l48 110h1047l-48 -110h-1047zM-40 715l48 110h1139l-46 -110h-1141zM138 660q0 280 190 470t470 190t476 -196l-48 -111q-183 197 -428 197q-230 0 -390 -160t-160 -390t160 -390t390 -160q251 0 428 201v-162q-173 -149 -428 -149q-280 0 -470 190t-190 470z " />
<glyph unicode="&#x2122;" d="M2 1439v113h575v-113h-224v-663h-128v663h-223zM638 776v776h125l170 -464l172 464h123v-776h-121v477l-121 -328h-119l-123 329v-478h-106z" />
<glyph unicode="&#x25fc;" horiz-adv-x="1116" d="M0 0v1117h1117v-1117h-1117z" />
</font>
</defs>
</svg>
